<svg width="160" height="161" viewBox="0 0 160 161" fill="none" xmlns="http://www.w3.org/2000/svg">
<path d="M60.084 49.3882C41.765 31.5643 54.3837 0.5 79.9431 0.5C105.502 0.5 118.121 31.5643 99.8021 49.3882L79.9431 68.7105L60.084 49.3882Z" fill="#CBEA7B"/>
<path d="M60.1983 111.612C41.8793 129.436 54.498 160.5 80.0573 160.5C105.617 160.5 118.235 129.436 99.9163 111.612L80.0573 92.2895L60.1983 111.612Z" fill="#CBEA7B"/>
<path d="M48.8882 100.416C31.0643 118.735 0 106.117 0 80.5572C0 54.9978 31.0643 42.3791 48.8882 60.6982L68.2105 80.5572L48.8882 100.416Z" fill="#CBEA7B"/>
<path d="M111.112 100.301C128.936 118.62 160 106.001 160 80.4417C160 54.8823 128.936 42.2636 111.112 60.5827L91.7895 80.4417L111.112 100.301Z" fill="#CBEA7B"/>
</svg>
